<mxfile host="app.diagrams.net" modified="2023-06-20T06:55:26.171Z" agent="Mozilla/5.0 (Windows NT 10.0; Win64; x64) AppleWebKit/537.36 (KHTML, like Gecko) Chrome/114.0.0.0 Safari/537.36" etag="q2vLU8Aa-8zX32wSIb01" version="21.3.7" type="github">
  <diagram name="Page-1" id="aGPxRvVlbG0rxvT0GZqG">
    <mxGraphModel dx="1674" dy="1896" grid="1" gridSize="10" guides="1" tooltips="1" connect="1" arrows="1" fold="1" page="1" pageScale="1" pageWidth="850" pageHeight="1100" math="0" shadow="0">
      <root>
        <mxCell id="0" />
        <mxCell id="1" parent="0" />
        <UserObject label="" tags="Background" id="7MCkTkyH9ZuYyrYtR4p4-1">
          <mxCell style="vsdxID=306;fillColor=none;gradientColor=none;image;aspect=fixed;image=data:image/png,iVBORw0KGgoAAAANSUhEUgAABcMAAAHUCAYAAAD2jDB/AAAAAXNSR0IArs4c6QAAAARnQU1BAACxjwv8YQUAAAAJcEhZcwAAFiUAABYlAUlSJPAAAEiZSURBVHhe7d3t0eM20jDcO4T9p78OwVVOwCFMCHYGE8Jm4BAcgkNwCBvChrAhvG/3DDSPRAMkQVHi1zlVXd6dSySBpkSRTQj8PwAAAAAAAAAAAAAAAAAAAAAAAAAAAAAAAAAAAAAAAAAAAAAAAAAAAAAAAAAAAAAAAAAAAAAAAAAAAAAAAAAAAAAAAAAAAAAAAAAAAAAAAAAAAAAAAAAAAAAAAAAAAAAAAAAAAAAAAAAAAAAAAAAAAAAAAAAAAAAAAAAAAAAAAAAAAAAAAAAAAAAAAAAAAAAAAAAAAAAAAAAAAAAAAAAAAAAAAAAAAAAAAAAAAAAAAAAAAAAAAAAAAAAAAAAAAAAAAAAAAAAAAAAAAAAAAAAAAAAAAAAAAAAAAAAAAAAAAAAAAAAAAAAAAAAAAAAAAAAAAAAAAAAAAAAAAAAAAAAAAAAAAAAAAAAAAAAAAAAAAAAAAAAAAAAAAAAAAAAAAAAAAAAAAAAAAAAAAAAAAAAAAAAAAAAAAAAAAAAAAAAAAAAAAAAAAAAAAAAAAAAAAAAAAAAAAAAAAAAAAAAAAAAAAAAAAAAAAAAAAAAAAAAAAAAAAAAAAAAAAAAAAAAAAAAAAAAAAAAAAAAAAAAAAAAAAAAAAAAAAAAAAAAAAAAAAAAAAAAAAAAAAAAAAAAAAAAAAAAAAAAAAAAAAAAAAAAAAAAAAAAAAAAAAAAAAAAAAAAAAAAAAAAAAAAAAAAAAAAAAAAAAAAAAAAAAAAAAAAAAAAAAAAAAAAAAAAAAAAAAAAAAAAAAAAAAAAAAAAAAAAAAAAAAAAAAAAAAAAAAAAAAAAAAAAAAAAAAAAAAAAAAAAAAAAAAAAAAAAAAAAAAAAAAAAAAAAAAAAAAAAAAAAAAAAAAAAAAAAAAAAAAAAAAAAAAAAAAAAAAAAAAAAAAAAAAAAAAAAAAAAAAAAAAAAAAAAAAAAAAAAAAAAAAAAAAAAAAAAAAAAAAAAAAAAAAAAAAAAAAAAAAAAAAAAAAAAAAAAAAAAAAAAAAAAAAAAAAAAAAAAAAAAAAAAAAAAAAAAAAAAAAAAAAAAAAAAAAAAAAAAAAAAAAAAAAAAAAAAAAAAAAAAAAAAAAAAAAAAAAAAAAAAAAAAAAAAAAABouf3y+88Rv5b4LeLfHfEl4r7sz2WVAAAAAADwWbdffv9XKVZ/jcgC9t8R/4n4/94YuY2M3F5uN7f/r9IkAAAAAABYLgvOETla+170/l9ErVi9Vfw34q+IbJ8COQAAAAAA07KYHJFTm/wZkYXmWgF675Gj1P+IyCK+4jgAAAAAAD/m+M6R1e+e6mSryBHtObXKT6XLAAAAAABcwe17ATxHTx919PfSyP5mvxXGAQAAAADOKAvAETkC/GoF8FbkSPgcMW4qFQAAAACAo7t9nwM8pwqpFYTF98g50n8tKQMAAAAA4Ahu3x+EaRR4f2S+8uaB0eIAAAAAAHt1+z4VSo5y/l9Erdi7ZeS0JDlCfRh7LNhn/vJmgqI4AAAAAMBe3P5fEbxW2H1nZNE4C9q57Swe56jqXzNK07rFsjmq/ds6InJO71zvXxG5nVob3hmK4gAAAAAAW7t9tgieI7izKJ3F4SxUb1Igju1mn7+UdmR7PjEKXlEcAAAAAODTsihbirO1wu1akcXvLLTnaO+fyqZ3KdtX2pntfee0K9+K4mWzAAAAAAC8y+371CHvGg2dI61z/bsufk+J9v9c+pHzlNf6+Wpkwf1L2RwAAAAAAGu5fZ+a5B3F3SyA56jqU04BEv3KUePvKoznPOaHvnEAAAAAALALt+9TovxRiq9rRY5szgLxpebAjv5mYTynl1l7KhVTpwAAAAAALHX7/qDINadEyTm1fy2rv7TIQ+Y2R8XX8rQkcuT5z2X1AAAAAABMuX0fDb5WofbbQx8jLjUKfK7IS44Wz5sEa910MEocAAAAAGDK7fvc4GtM43HJqVCWyjxF5E2DNYriRokDAAAAALTcvhdja8XVnshi7m9llXSK3K1VFLcfAAAAAAAe3b4XYP8uRdSlkcVX06GsJPMYscaDS3MKFvsEAAAAALi22y+//xzx6ihkBdc3ibzmnOKvzt+e06b8VFYJAAAAAHAtt19+/+2hYLokcjS5uak/IPL86lzuecPj17I6AAAAAIBruL02BUcWVr+WVfEhkfP7fOK1fTI3zCMOAAAAAJzf7XtBNac1qRVK50SOBjflxoYi/zm1TU59Uts/c+LPsioAAAAAgPO5fS+ELy2iGg2+M7E/XhklriAOAAAAAJzP7bVCuAcw7lTslxwlvnQu8dyvHnwKAAAAAJzD7bVpNf4oq2GnYh/ljY6/HvZZTyiIAwAAAADHd/teCM8pTmqF0LHIZb6U1XAAsb++Puy/nlAQBwAAAACO67a8EJ7F0Z/LajiQ2G+/Rizd5wriAAAAAMCx3H75/aeIJUXRvyMURQ8s9l/u+yXT4iiIAwAAAADHkQXNUtisFTzH4s+yCg4u9mW+B/LGRm0/j4WCOAAAAACwf1nILAXNWqFzLDwo84Riv/452M9zwk0RAAAAAGDfbssK4b+VxTmh2L8K4gAAAADAeWQBc1DQnBMK4RcQ+3nJe+NrWRwAAAAAYB9uv/z+70Ehc04ohF9I7O8/Bvt/TniPAAAAAAD7cPvl9y+DAuacUOS8oNjvvSPE/xfxc1kcAAAAAGAbWagsBctaIbMVCuEXFvu/tyD+34h/lcUBAAAAAD4rC5QRvQ/MvGwhPPqe04T8/RB/lD9dTvS9tyD+d1kUAAAAAOCzbv0FzT/LopcU/R+OoL90gTf6/9cgH1Px77IoAAAAAMBn3H75/bdBoXIqLl0IT5WcXL0YvuSXBb+WxQEAAAAA3uvWP094FjwvP+fzICcZl5/6I3KQBfGe95L5wwEAAACAz7j1jebNQufhipfR5p8i/h3xn/JPL4t1/SM/5U+XFnnovbnyV1kUAAAAAOA9bt8LxLUCZSt+LoseQrY3YjiX9csP/Yx15Ajox3V+i/Lny4tc9E6786UsCgAAAACwrtv3QnGtMNmKr2XRw4g21/r43/LnxWIdvw7W+S3KnwmRjz+G+RmJQ/7iAAAAAAA4gFvf9CiHncoi2p7zUg/789Lo8FheMXyGyMkl3mMAAAAAwE7dfvn966AQORaHfshhtL02Qvml0eGxvGL4DJGTnKu9Z/7wX8uiAAAAAACvuV2sQBntb00Hs3h0eCxbLYZHHGpO9U+InPTMH37oGy8AAAAAwI7c/vlAybH4d1ns0KIftalS/i5/7hbLtorhRjZXRF4u954DAAAAADZ0axdxa/GfstjhRV9a08IsKl7Hcq3RzorhFZGXf0XM/TVCvu6nsigAAAAAQL9b3wMNT1PYjb7k1DC1Pi4aHR7L/XuwnnsohjdEbnqmS/mzLMbJxb7OaYzyJl1+pjL+jPh7JO6vy/dTLufGyY7k/ij7JW9A5n7KZzbU9uM9hvvTNEkAAADA60qxoVZ4rMUfZbHTiD61bgR0z/Mdy2TxprYuxfARkZ8sftXyVgu5PJnYp1kozeNQFrx7bsxNRf6a4F5Y/RKhoPoBmeeS78x7z2d7Kh73p+NAiDxkrvNmwVhc5sZQpe+t2OVzPKJdc/bnWWN3+6TSxmaURRhRy1sjTv+cnejj/QbxnNjdMTzadB+wcNXYdJ9U2jOMyzyrKvs66HszyiIfU2uDmI6SPoD3i4NObd7sWmQh4nTFpOhT62ZA9yjkWKZVDP9SXkJF5Kc1Qr8Wi+d0Zz9iP2axNEcHzz3+rBVZTM3RyUaOryjzWfK6ZvF7TuRzB/IYfskbHdHvvHCo5eUxLjPF1KDfY7HL75Fo15z9edbY3T6ptLEZZRFG1PLWiNOf50UfW9cLtdjdM3OiTZ/+rt9bbLpPKu2pxW/l5acW/Zz9XiyLfEytDWI6SvoA3isOOD2jwk/5pRr9ypFYtf5mdBUQ4vWtk1sPf5yQORrkbCzcNT6g2G9ZMN2iAN6KPIG+xMXCu2T+Sh5r+f10ZGH8Ujceo79zi6f5i4vT3zAY9HksFMP3F4rhJ1fLWyMUw59DMXx/cYRieN4Iv8KvLBTDTxYlfQDvFQecuUWpXZ2YRnuyoLbaF3ysK4sotX53jQ6P1yuGLxQ5ypsSh3w/Mi72VxZ49nzhlBcM+dk1jcoMmaeSr8xbLZ9bRx5HcpT6FYq/PcXT0z9zodLnViiG7y8Uw0+ulrdGKIY/h2L4/uIIxfCMPB869blQ9E8x/GRR0gfwPnGw6RkVvpuRuNGWnFf43q5VRnXGenLKhsf+Psbs0eHx2izS19ahGD5D5OmQ70nqch9FHOmCSVF8ROal5GevRfBhnH5/Rt96i6en/i6q9LcViuH7C8Xwk6vlrRGK4c+hGL6/OEoxPOPUn6fs36C/zSiLfEytDWI6SvoA3icONnNH4f5VFtlctOWxEH6PtQrirQLP7BOeeG3rC1kxfKbIldHhBxf7Jh9mc+QLpXwPmj7lQeTjSEXwYWS7zzrN15Li6Wmnkqn0tRWK4fsLxfCTq+WtEYrhz6EYvr84UjE844+y6OlE3xTDTxYlfQDvEQeanhG4u3jwVrQjC2y19mW8/PPvXMdgnffIQsqskYXxOsXwF0WueooBl3la+hHE/siRw61fRxwx8vN86QdtRv/z8zj3BtXeI/fnqY4Z0Z8lxdP8TjvlsXPQz7FQDN9fKIafXC1vjVAMfw7F8P3F0YrhGWcdFKAYfrIo6QN4jzjQ5MO0qgegQexqjtFoz1gR/6W2xvJjxfZZJxDxOsXwFUS+5p7YnH4O3KOIfXGmouljnHZU8Zjo89lubDzGaY7H0ZelxdNTPlBz0MexUAzfXyiGn1wtb41QDH8OxfD9xRGL4ae8ER59Ugw/WZT0AawvDjI9F1u7GxUZbRor0OSDMBdf4MeyrWLef8tLRsXrFMNXEPk69Hv0amIfnLVo+hiXufESfc0bg2e8sfEYWQw+/LEj+vBK8XQ3U6CtpdLHViiG7y8Uw0+ulrdGKIY/h2L4/uKIxfCMPLc71Y3w6I9i+MmipA9gfXGQaU0HMozdFn+ybYO2PsbiEW+x3NeH9Qxjcp7VeI1i+EoiZ3OLcXK7kch9jh6e+yuTpZHvg/xc5Wc+Lx5bka9598XZKUfTPor+9UyhtSRyZFLup7xxWduP9/jE/sy2HHr+7Gj/q8XTUx0/K/1rhWL4/kIx/ORqeWuEYvhzKIbvL45aDM/4T1nNKUR/Zr8XyyIfU2uDmI6SPoB1xQHmp+EBZyR2/VOqaN/Yl9+iolUu87COYUyenOdrBsvc43Qj8N4tcja3KDdr1D7rirzn6OEsJtb2ydLI9WWRNG9K/Vo21S2WzePcl4gcsb52sT7Xd9b5lufeKO2JzFfuh9wfi0Zi53Jl+VzPO0asfy2bOpxo+xrF09M8ULPSt1Yohu8vFMNPrpa3RiiGP4di+P7iyMXwjNP82jH6ohh+sijpA1hXHGDGRj4/xu5PRKONU6NSs2jSXbSKZbIYV1tfxmiBLv7e+kI+/Yn9O0Te5ha+TlPMOYLMd8RahfBcTxZh37YPY91ZTM1j31qF8WzzaQri0Zc8lq5ZCM88Z77fMg1Jrresf83C+CEvDKPdaxRPT/N+HvRrLM5QDD/VqP49quS8GWURRtTy1gjF8Oc4ejF88eAG6io5XhKneB5O9GO3xfA9iH4f+lgDsJo4yJ2quBjtnCqId1/kx+uz0FdbV8ZowST+rhi+osjb3C9wI+8/JHK91jQaeSzKdX102pHYXo5oX6Pwe4oCYvRhzaluMq8fzUlsL4uHaxXyD1cQjzavNZI43wOHnwJo0KexUAxnUiXnzSiLMKKWt0Yohj+HYjhPKjleGmc4j1UMHxH9VgwHiANcFoFqB75hHGraiWhvFnOyMFXrS8aSgvjY+pqjHeNvraKSYvgCkbfct7V81uLUcznvQeR4jUL4tyJ4WeVmog05uvjVIuqhC4jZ9tKHWt96IvO46cMoc/ulHbX29cShCuLR3rWK4RmHv6lY6VMrFMOZVMl5M8oijKjlrRGK4c+hGM6TSo6XRl7vHvr6KdqvGD4i+q0YDhAHuLmFgsMdCKPNc+Yvnl2Ai9fm3LS1dWT8UV72D5XX3kMxfKHI3dz37WHn/T2CyO+rRbf8fO5uH0Wbsl+vFIQP+yCiaHvPxWwtcvlNi+BD0Z7cn6/26zAF8WjrmsXwjOb32xFU+tMKxXAmVXLejLIII2p5a4Ri+HMohvOkkuNX4tAP1Iz2K4aPiH4rhgPEAW6qWHyPXRU35op2r1YQj9flKMPa8hnNu+iD1z2GYvhCkbu5xYFTPR19TyK3rz4sM+fh3/XIk2hfz8niMI44vcYro6jzvbDrqbSifTmn+Cvv2UMUhaOdaxfDMw47j2ilL61QDGdSJefNKIswopa3RiiGP4diOE8qOX41DnceexdtVwwfEf1WDAeuLQ5uY/NgP8ahfyYd7Z9zITm3ID42WrQ6wrXyunsohr8g8jd3rvtD3sjZs8jp1DREY5HLHaawFm195cGgR+rnK4X/vOg4xE9qo515E+eVUf+736fRxncUw/MzcMh5RAf9GAvFcCZVct6MsggjanlrhGL4cyiG86SS4zXikDfCo92K4SOi34rhwLXFwW3uKMBDfhE+yj4M+lSLyX7mawbLPEZ1XvXK6+6hGP6CyN/cL3JTpawscrq0mJjLHa6glm2OWFIQz2V2fzMm2jj3xmgtDjeFRrQ5b+a8Mgp+1+/haN87iuEZeQPycPOIDvowForhTKrkvBllEUbU8tYIxfDnUAznSSXHa8URz9sVw0dEvxXDgWuLg9uckbVZzDn0QzTuoh9zCuKjB/z4+9TDG/9RUK+85h6K4S+I/I1NW/MY8ryiyGfPCdRjZCH8sMeSbHvpQ61vY7Hr91+0Lz9Hpx/5XhPtX/pe3nVRONr2rmJ4xuGOp5U+tGKXfYt2KYbvSCXnzSiLMKKWt0ac/lwu+qgYzmKVHK8Vh6sFRHsVw0dEvxXDgeuKA1uOdKwd8IZx2PnCaqI/cwrio33Ovw9e/xj/OFmvvOYe1ZHkzBc5nFucPMUNna1FHpcW2fKk9PD7IPsQsaRwvNuicbSt5+L1MQ7/i6GU/Rj0a27sdvqwaNs7i+EZh/o1QKX9rVAMZ1Il580oizCilrdGKIY/h2I4Tyo5XjMO9QymaK9i+Ijot2I4cF15YBsc6FpxioLHo+jTH4M+1qJZEI+/TV2YPp3gVf7+I8pLWChyOPd9vOsH+x1B5DALwXPnaX+MUz3ENPqzZMqUXY6qiTb1nAw/xqm+F7I/g/7NjV0eV6JdPcXT0/8qoNL2ViiGM6mS82aURRhRy1sjFMOfQzGcJ5Uct2Lp9/5hBshFWxXDR0S/FcOB64oD29wviVOOqI1+zZkvdqwgPlYUfFqu8vcfUV7CQpHDS/7CYQuRwyWF00NPjdISfVoyx/auTiajPUunRzndDdIU/fo66Oec2OtNjp7iad4cXjL9T/b9EPOIDto9ForhTKrkvBllEUbU8tYIxfDnUAznSSXHrcj9NGdgWC0O8RymaKdi+Ijot2I4cE1xUJua9/oem/wMPLab7csvsSxOvO3hc7HuWQXxiH8UO+Lfpr5EfrS78rcfUV7CCyKPc0Yrm5LmBZG/ufOzP8au51V+VfSt90JiV4XTaEvPRes9Tv0w2ujfkodq7m7KkGhTV/E0Yun0P4f4jA/aPBaK4Uyq5LwZZRFG1PLWCMXw51AM50klx6349lnK/w7+fW7sft9FGxXDR0S/FcOBa4qD2txRjZsUPnK7g3bkqLX8GfvqF92xzjnFj3+Mbo3/P1Uc/PHFUfnbjygv4QWRx7kFrLfdWDm7yN2SE+bDPX2+R/RvybQxuzihjHb0FNfucYlfV0Q/l4yS3tWxJdrTXTyN/879lc0wdl+gqrS5FYrhTKrkvBllEUbU8tYIxfDn2N1nPdqkGL6hSo5bcS+GL53+MG+e7/qaKtqnGD4i+q0YDlxTHtQGB7lWbFLMiu2OfTH/FbHqz/TLOmvbeoxaQXxsuR+jQAf//hTfVsRLIo9zb+6ccnqHd4u8LSmcnnoE8V30szc3/yuLbira0VvwPfUo/0fZz4jeUdK7KtJEexYVT+N/L507fdc3SirtbYViOJMqOW9GWYQRtbw1QjH8ORTDeVLJcSt+fJbify95Dk7GP66L9yTaphg+IvqtGA5cUxzU5nxBbFK0ie3OvejLL+4cEfzyyVSsI4sfc4pDT1/88b+nirBZWBjtT1kVL4g85v6r5ncQ5g1fIPLWc3GTcfoL1kfR3zk30x5j05syuf1Be+bEqUf5D0V/l8wJv5sL+2zLoG1j8XSRE/9/yVQxGbu92VhpaysUw5lUyXkzyiKMqOWtEYrhz6EYzpNKjlvx9FmK/7/knCdjt9dV0TbF8BHRb8Vw4JoqB7labDVfeN6h7i2+5ajFnL938U+2YtmlBfGxUez5N8XwD4hcztp35eXMFDlbMnXCpaajyf4O+j8Vm17Qx/bnfFYeY3dzYn9C9Lv3Jscm35k10ZaXiqfxb73fwffY5U2TSjtboRjOpErOm1EWYUQtb41QDH8OxXCeVHLcin98luLfet57j7HLX4JGuxTDR0S/FcOB64kD2tzi1qZfbrH9vPhbckGehZ5F84vnMmX52nof40dBPP479WUy+vdvG+ZlkctZDzMsL2emyFnvKNFLnjBFv3vztMkNg9huT1Et4zLTowxFv/MmR+9Ph3dxIyja8WoxPL8Lx270tuLH9GB7MmjjWCiGM6mS82aURRhRy1sjFMOfQzGcJ5Uct6L6WYp/7x0EcI/d7ctok2L4iOi3YjhwPXFAm/sT+V18sWU7IpYUxTOyQPWlrGqWeH1PQTyLJVOjQkeLKWWzvChyeaj39RFEruZOP3OPXRbCPiH63Vtk3urhxIea0mVr0f+ei4WMXYyij3a8XDyNf188j2hZxW5U2tgKxXAmVXLejLIII2p5a4Ri+HMohvOkkuNWtIrhc6+Bh5HnCrv6VWi0RzF8RPRbMRy4njigHXIEbbQpi85L5zLNEW550J/1RR2vy5OBOUWAfM2SaV1+RNkkL4pcHuIXD0eSuRrkbioufbIU/e+5gPh4wTC22Tudy3/LopcVOZj7XXCPvTwgdZXiafxtyfzyGbuaR7TSvlYohjOpkvNmlEUYUctbIxTDn0MxnCeVHLei+VmKvy35VVzGj19N70G0RTF8RPRbMRy4njigzfly2O3cytG2e1F8yRd1RvZ/chqV+PvcUXH5mlk3GGpRNscKavmtxCXnP14ictVT3M3PwSVHhd9F/3tvHnw0X7G93vZdelT4XeSh54Iho+vXSO8QbViteBp/X/r9tpv3T6VtrVAMZ1Il580oizCilrdGKIY/h2I4Tyo5bsXoZyn+3vOd8xi7uREebVEMHxH9VgwHricOaHMKvLt9OvRdtDFH7OWBfGlRPJfLonrzgV/5t/K62vKPsbQNLpRWFPmcc+Jz+oupNUSeekcRX/4mQ+SgN2cfLZrG9npublx+VPhd5KJ3uqDNH6QZbVi1eBqvWTqP6C4eqFlpVysUw5lUyXkzyiKMqOWtEYrhz6EYzpNKjlsx+VmK1/QOoLjHLt6X0Q7F8BHRb8Vw4HoqB7haHOagF229F8WXPOzrHrlsfun/Y6Rm/NvSeVNnRdkMK4h8zplGZxfTGOxd5Kn3JHhXcwVuJfLQU3D+2A2E2FZvod6J74PIR9cUXWWxzUQb1i6G5/dsz3v7HvndufkvRgZtGgvFcCZVct6MsggjanlrhGL4c+zusx5tUgzfUCXHrZj1WYrXLZ2edA+/kFMMHxH9VgwHriUOZnMvqA55ghLtzulPllywP0aOgHv6Eo///7aCeNkEK4h8zvpiLy9nROSp54Lm9Beoc0Uu8hiUuZsTnyyGu7nxgshHTzEyY9MLwdj+6sXTeN3S78HNp12rtKkViuFMquS8GWURRtTy1gjF8OdQDOdJJcetmP1ZitcuvRG+6S/DYvuz34tlkUuJfiuGA9cSB7Mvg4NbKw5dCIn254Xj0p913+PpoZvx37cUxL81mFVEPk99s+eTKjkbC3NL71zso57j4W6fGbGlyEvPr482nTYotv+W4mm8du45xDA2nXqt0p5WKIYzqZLzZpRFGFHLWyMUw59DMZwnlRy3oqcY3vsg8XtkEX2zX4bFthXDR0S/FcOBa8mD2eDgVo3y8sOLvtwftlntZ0d8Gy0esXpBvDSVFUQ+c/9U8zwIJ+AjMj+DfE2FUcQ7F/uo57j1tSzGg8hLz4MkN72hENt/W/E0Xr90HtHN3leVtrRCMZxJlZw3oyzCiFreGqEY/hyK4Typ5LgVXZ+leP3c66thbPYMldi2YviI6LdiOHAteTAbHNxqcboHp0WfXn3Y5j1yZOCrI86fojSRldRyXAlf6iMyP4N8jYVRxDsX+6j3IsbNjYrIS9eo6LLYJmL7by2exjJLbzJvUvyotKMViuFMquS8GWURRtTy1gjF8OdQDOdJJcet6P4sxTI5DWBtXVOxyfs0tqsYPiL6rRgOXEsczOZ8MZz6ZDP6l1/mrzxsc9UozWIltRxXwpf6iMhPzw2fTaeDYFrso54LmNPdDF1TJV9jsdmFfm570Jax6D4exjKvPFDz4zdbBm0YC8VwJlVy3oyyCCNqeWuEYvhz7O6zHm1SDN9QJcetWPRZiuUO80DN2KZi+Ijot2I4cC1xMJvzxbDZT5o+KfqZF5c9J21vidIcVhI5nbNPFXBHRH56ilzmC9+52Ec9J7yXOP4vFfnp+c7YclqQtxdPY7mchuwQ84gOtj8WiuFMquS8GWURRtTy1gjF8OdQDOdJJcetWPxZymUH65oTea7w0QdqxvZmt7MscinRb8Vw4FriYDanyHWpA170d615xRdFaQYriZzOOfk5/QXVKyr5GotNnxbPtNhHPRcuTnhHRH565g3f7KZbbPsjxdNYduk8oh99oGZl+61QDGdSJefNKIswopa3RiiGP8fuPuvRJsXwDVVy3IpXiuH5y7Alv7D+6I3w2JZi+Ijot2I4cC2Vg1stLnnAi37f5xX/6BQqZfOsJHI6Z4oPxfCGyE3eHKrlrBplMXYs9lPPSH8XpyMiPz0Pj9zsOBPb/ljxNJZfOo/ox0bOV7bdCsVwJlVy3oyyCCNqeWuEYvhzKIbzpJLjVrz0WYrl80b4kl+GfezXh7EtxfAR0W/FcOBaKge3Wlz+gBc5yIv7ngLS4iibZCWR0zlf7orhDZGbnqKLh2ceQGW/jYWHZ46I/PR8Pi5RDE+xjl0/ULOy3VYohjOpkvNmlEUYUctbIxTDn0MxnCeVHLfi5c9SrGPpjfCP/GoutqMYPiL6rRgOXEvl4FaLjz/kYq8iF3kB+tYpVMqmWEnkdM6XuyJuQ+TmEMU+5qvst2aURWiIHB3ilxOx7Y8XT2M9S24gf+SBmoNtjoViOJMqOW9GWYQRtbw1QjH8OY5eDD967K6YX2ljK1b5LMV6et6vj/H25w3FNhTDR0S/FcOBa6kc3Gpx+Dv12YcZkV8CcyML4kt+DjYn8su6FbW29ESt349xulGg0afsdy3PT1FezkDkpmcaCA9b3LnYR6a9WVktb60oi3xcbDuP79U2VWKtYvhu5xEdbG8sFMOZVMl5M8oijKjlrRGK4c+hGL5tXL4YnmJdc6anHMbbH6gZ65/9XiyLXEr0+9DHGoBulYNbLT765R7bywvoe3H2XsR9jMfi8D0+Oq/3hSPzXMt/PkRuuJ/y53L3/ZixyYMVY7vZllpfnqK8nIHIzaz8lXBytHOxj/KzWNt3tTh9oWENlbw1oyzycbHtnv2+2uc41rV0HtG3PlCzsr1WnKEY3vre3n2U7u5etLWW92qURRhRy1sjFMOfQzF821AMD7GuvI5f8suw/K56243wWPfs92JZ5FKi3673gGupHNxq8elieM9FnjhYlN38MbFNxfAXRG6cHJ1I7CPF8JVV8taMssjHxbY3KYanWN/SeUTfdjypbKsVZyiGHzZKd3ev1vZWlEUYUctbIxTDn0MxfNtQDC9ifUtvhL/tM53rHmyrGWWRS4l+u94DriMOZPlFVTvADUMxXKwWZTd/TGxTMfwFkRsnRycS+0gxfGWVvDWjLPJxse3NiuEp1pm/Hqptayre8sySynZaoRi+YZTu7l6t7a0oizCilrdGKIY/h2L4tqEY/iDWufR76i0P1Iz1KoaPiH673gOupXJwq4ViuFgtym7+mNimYvgLIjdOjk4k9pFi+MoqeWtGWeTjYtubFsNTrHdJUeQt84gOtjEWiuEbRunu7tXa3oqyCCNqeWuEYvhzKIZvG4rhA7HenucOPcbqD9SMdSqGj4h+u94DrqVycKuFYrhYLcpu/pjYpmL4CyI3To5OJPaRYvjKKnlrRlnk42LbeyiGL51HdPUHag7WPxaK4RtG6e7u1dreirIII2p5a4Ri+HMohm8biuEVse4/B9uaE6vfCI/1KYaPiH673gOupXJwq8Wni+EeoLnf6HmA5peI+37M8ADNA4rczMpfibc+9I7XxT6aOz1Wxv/KYoyo5K0ZZZGPi23nMbjapkq87SIn1r10HtG/yipWUVl/KxTDN4zS3d2rtb0VZRFG1PLWCMXw51AM3zYUwyti3bt4oGasa/Z7sSxyKdHvQx9rALpVDm612N2Xe6/sw4zIL4El8VgUnhNLTgjmRJ401Nr3GLV+P8ZPJWWnEX3Kftfy9RTl5QxEbvJ9Uc1ZJU5/YXoGlf3WjLIIDZGjvMir5q4WZbGPi233fI7fepET688bpbXtTsVq7aqsuxWK4RtG6e7u1dreirIII2p5a4Ri+HMohm8biuENsf48V9r0gZq5rsG6m1EWuZTo96GPNQDdKge3WrzlAVZXFfl850Vsnmjkl9npitpLlXzUcvUY/ykvZyByoxh+MpX9NharTk9xNpGfns/HZseZ2PZuiuEptzHY5txY5Xykst5WKIZvGKW7u1dreyvKIoyo5a0RiuHPoRi+bSiGj4ht9Pwy8TFW+dVprEcxfET0WzEcuJbKwa0WDngrinx+6iI252jbZGqSPYkczPlyV8RtiNx0nbyWxdix2E8900od/pdB7xT5+W2Qr7HY7DgT295VMTzFdjabR3SwzrFQDN8wSnd3r9b2VpRFGFHLWyMUw5/j6MVw5xsrq+S4FR/5LMV2es6ZHuPlB2rGOhTDR0S/FcOBa6kc3GrhgLeiyOenL2Lzy3/1p3IfRfT9r4dctEIxfEQlX2PhVwk7F/uo5+L0a1mMishPz8XDZnPqx7b3WAzf7IGag/WNhWL4hlG6u3u1treiLMKIWt4aoRj+HIrhPKnkuBUf+yzFtpbcCM946UZ4LK8YPiL6rRgOXEsczOZciDrgrSjyudVFbI4G/RpxqWkPor9zTn4Uw0dEfnpGEptWaediH+UDb2v7rhYeijoi8tNzob/Zd2lse3fF8BTb+ini4w/UrKyvFWcohmfhIV9/uCjd3b1oay3v1SiLMKKWt1aURU4r+qgYzmKVHLfio991sb0lN8LzXGHxNWwsqxg+IvqtGA5cSxzM5nwxvHTRybPIZ17k1fL8qbjUvOLRzznv8T/Ky6mI/Byi4Mc8sY/yplht39XCfPojIj89hdzNLvRz24O2jMVHP8OxvaXfiYuP25V1teIMxXDH5Der5LwZZRFG1PLWirLIaUUfewpUuysmR5sUwzdUyXErPl0Mz1+G9Qy0ucfic9JYVjF8RPRbMRy4ljiYzfliMGp2RZHPrYvhj3H6ecUH/W2FL/URmZ9BvsbC8WLnYh/1HoM8RLMi8tL7MKjN8hjb3nXxNLb50XlEK+tphWI4kyo5b0ZZhBG1vLWiLHJa0ceeX3IphvOkkuNWfPy7LraZ51BLfhm26BeLsZxi+Ijot2I4cC15MBsc3Grx3/JyVhD5XLMYnicReaK85O76Y+QJwilPQgf9bIUv9RGRny+DfE2F4unOVfbZWFz2mQNjIi89Fw6bfo/G9ndfPI3tfuyBmoN1jIViOJMqOW9GWYQRkaeeAuqpzzeif4cuJkebFMM3VMlxKzb5rovtfuxGeCyjGD4i+q0YDlxLHswGB7dqlJezgsjnmsXwjG8PE4vIguWch0WORRbVT1P4ir7MHbnpBHxE5CffX7W8tcK84TsX+6jnAtVUWRWRl545Lzedez22f4jiaWx7yTyi+b3VVRAbLD8WiuFMquS8GWURRkSeFFCL6F/PMXF3v/SMNtmXG6rkuBWbfdfFtnt+/fAYXe/3eL1i+Ijot2I4cC1xMJs74vMS80t/QuRy7WJ4xreCeFl/PpAs5wR+ZbT4fV7xQ4+4ifbPzbUT8AmRo8MU/vYkcpHvwfwszYmP3Ygq26vtu1YY7f8g8pHH2VqeWrHpTcbY/lGK4XnjbcnPprsu5CvLt0IxnEmVnDejLMKIyFPPwI5T/3Kp0t9mlEV2JdqlGL6hSo5bsel3XWx/yWCuPFeYfW4ar1UMHxH97rkucF4BHF8czBQLPyxzOcjtWvGjIH4X/z+3teSn5/fIE41c/pA3Q6Lds77Yy8sZEXnqHbmheBoiDz0n+B+7iRDb6p3v+tQFh16Rj0PdTIjtH6Z4GttfOo/o7AdqVpZthWI4kyo5b0ZZhBGRp57j62kfgB596/me/l9ZbFeiXYrhG6rkuBVbF8PzRviSX4bNfqBmvFYxfET0WzEcuJ7KAa4WDnoriVy+qxie8Y+CeMp/i8h52ZacaNwji+KHOlEtba715TF2eQGxN5EnxdNOkYPe6WW+lkU/IrbX8+uRxU/wP6PIx6FyF204VPE02vDWeUQry7VCMZxJlZw3oyzCiMhTz+d/l5/RNUTfDp+HbNegnWOhGL6ySo5bsfn7J9qw9Eb4rIEk8TrF8BHRb8Vw4HrigDbni8e0ByuJXC4thmfxZc6+qhbE7+Jv+fP+Vx66mScThzhhLW2t9eExTnshtbbIVc975vIP3o0c9Bb0PvoLjNhe72h/F6oh8tC7Xz96k6Mm2nC44mm0Y8k8ovkdOTmP6GCZsVAMZ1Il580oizAi8tR1nlwWO53oW88vO3d5nRbtUgzfUCXHrdjFd120o/eB/feYPM+K1yiGj4h+K4YD1xMHtDlfDkYFriRyubQYnpEnCXMK4rNOauJ1ub6l06jk+2bXo38H7W3FaX9iu7bM1SB3U3HpC5vof88UKR+/eRDb7B3t78ZRiDz03kjcfMqgaMMhi6fRlp5Cyj1y/4zmfPD6sVAMZ1Il580oizChlruROOVDu6NfPd81m990rYl2KYZvqJLjVuzmuy7aks+9qrVxKkbfP/F3xfAR0W/FcOB64oA2q8BVXs6LIpe9BajHyC+quT8jmz1KJF6b0znkyceSaVTyZH13RfFo09w87/ICYo8iV70PDbxs8TT63purTW7KxHZ7P/NXv8HROyp8F6P1oh1HLYbnd1PvzYeM0WNP5fWtUAxnUiXnzSiLMCFy1fPddLpfr0afeq8VJn8Rs4Vol2L4hio5bsWuvuuiPUsGauW1cfMXlvE3xfAR0W/FcOB64oA29+LeScpKKrl9jLEv62+jR+O/qxfE72KZXHfeIJmz/sf4VhSP2HwUZCptqbVzGN7XHSJfPRc2GZecOzz63TuKfpML2dhub3H3yjc4lhRmd3F8yXYM2jUWu7rIifbM/b4bRvMGU+W1rVAMZ1Il580oizAhctXzHXq6Z79En07R/2ibYviGKjluxd6K4Xm+tWSAVnOq0Ph3xfAR0W/FcOB64oBmBO2HVXL7GFPFqW8/B43/5n6bc6KweMRMLJvTqPRM9ZCRRYv8Qt20KB7b94uHN4ic9RZPs3i4ixskn5L9jegp3m06v3psv7fQeNUbHD0XChm7mV4s2nLo4mm0aek8otX3auV1rVAMZ1Il580oizAhctX7mT/VVCnRn54br3+VxXYn2qYYvqFKjluxu++6aFP+wnLJjfDqdW/8u2L4iOi3YjhwTZWDXC12e7J1NJXc/ojy97GT4B9f8vG/5945f+knpLF8bieLoD136Tctisd257TVXPgLRN56R8deal726G9v0XTTk8rc/qA9U5Gf7avd4Jh70/gxdnPTINpy+OJptmvQzrnxj19dVF7TCsVwJlVy3oyyCDPU8jcSu/ysLhF96R10sNvBStE2xfANVXLcir1+1y0598r4x2ci/k0xfET0WzEcuKY4qM35gjjdzxC3Usntjyh/n/pC+lGIyv8dMafwu0phJtaTd+pzfvG5BdHm/G3vEtvMnNTaMoyXbhJcVeSt90It4xIXOdHP3rnCM7b+FUXvSPaM0xQe5oj+9twIzNh0tP9QtOcUxdNoW+8vlTL+cfNm8PexUAxnUiXnzSiLMEPkq/fz/vHzzXeIfvQUkDN22+9om2L4hio5bsVuz+mibUuuOTKe3k/x/xXDR0S/FcOBa8qD2uAg14pdPqDlaCp5vce3Gw7x36ni1NMd7/j/Hy2I38X68o792Pzim/yaILY79+e1l5zuYQ2Ru97R4fn6048mjj72XsTu4oZMtGPJ0/svMXVW9LN3/veMXV3UZ3sG7RuLPRfD537XDePpV0CVv7dCMZxJlZw3oyzCDJGv3iLY4X/BGn3onR5m1zems32D9o6FYvjKKjluxd7fRy8/UDP+t2L4iOi3YjhwTXFQm3vyZd7wFVTyeo8fJyPxv8e++P8x6jD+bZOC+F2sN99D2ebHwvgmcziWdjz2uRWnGEW0hchd7wVbxqmnWor+LSko7+Y9GG3pvcGRceqL1+jfkhFJu7uojDadpnga7Xt5HtHK31qhGM6kSs6bURZhpshZ72f90N9J0f7e7+FdD+qI9imGb6iS41bsuhieoo2LboRHfBuIE/9VDB8R/VYMB64pDmpZSK0d7IZh3vAVVPJ6j8di+NR0C9VR+vHvcwrBbz15jvVnoXSzeaJj23MuJnY1jcERRQ57R0FnnHL+8OhX/kqi96J9V9P0RHt6Cmz3yD6f8hdD2a+HfvbE7m6yRZtOVTyNNi55r2Z8++6r/HsrFMOZVMl5M8oizBQ56x0RethnwUTbe4pRGfn9u+tf3EX7FMM3VMlxK45QDJ/61XQrvp1rx38Vw0dEvxXDgeuKA9vcL4nTT3XwbpWc3uPpZCT//+Dvj9EspOXfBq8dhgLWzgqRRxQ5XDpC81TT00R/lk7dsMeiaW/hISPfA6f6lUX0Z8nNjYxdXiBEu05XPI12LvklRkbPTQ7FcCZVct6MsggzRc6WPIfjcO/5aPOSm6+7H1wQbVQM31Alx63YfTE8RTsXn5tFKIaPiH4rhgPXlQe2wYGuFacqZG2hktN7DIvhYxe8ow80jb9fsiAefZr7Pt5kCpeziTwuLUid5jgSfVlSCN9r0XTpyJvMwSkK4tGPpRdbux2RGG07ZfE02rr05k3t32uhGM6kSs6bURahQ+Rtyef8MIXVaOtpbqgPRRsVwzdUyXErDlEMT9HWpQ/UnP3dXzZ1KdFvxXDguuLANndUghG1L6rk9B7/OBmJfxub8mO0oBh/v1xBPPoz94LCLxxWErnsudh5jMM/gyD6sOQifdcPE4229RTaHuPwx5Nsf+lHrX9jseu+R9tOWzyN9i4pIs0NxXAmVXLejLIIHSJvS0aHH+b7KNr510O758YhrsWinYrhG6rkuBWHKYanaO+SB5vPjrKZS4l+K4YD1xYHtzlzLecJpkLiCwb5fIxaMXzsDvjkyUu8ZuoO+uELWHfRj7kXTIc66du7yOfS0cQZh7y5Fu3OPi+5gM3Y/QVftLHnpPgx8n1wyAvaaPfS0UYZu/6lQ7TvzMXwV44/U6EYzqRKzptRFqFT5O50N55TtG/pr1sOcR0W7VQM31Alx6043HVRtnnQh9WibOJSot+K4cC1xcFt7kmZqVJeEPlr3XSonozEv4/dpJj8mWS8ZqrIs/sLhjmiD3O/yA8/InlvIqdLRxNn5AntYd5/2daIpaNRD/MA0Wjr0mJ/xtEKqq+MMtr9DZ1o46mLp9HmJfPtzgnFcCZVct6MsgidIndLn1GS39W7PL+Idi0phGcc5jMdbVUM31Alx604YjH8lXPx0SibuJTot2I4cG1xcPsyONi14q+yCAtE/lonh61i+NgX1KwvpHjdVEF8txcMc0X75/yyIeNUD/vbi8jrKyNr8yJ39/O4RxuzCLV0FOqhPmPZ1tLmWl/mRB7ndv1Zi/ZlEfWlPpZV7Vq08/TF02j3K8efViiGM6mS82aURVgg8rf0GSX5nb2bX0BGW175Zdlun01RE+1VDN9QJcetOFwxPEW7l05tNxpl9ZcS/VYMB4gD3NwvFQXFhSJ3vcXwsZ+B/7e8bFK89rQF8Wj33OLAoS4kjibyu3Sk0z3yAnF378FsU8Qro4fz83u4Y2a0eezYMydy2d2dNEebsl89J/61OMzxMtp5ieJptH3teUQVw5lUyXkzyiIsFDnsKa4+Rn4Xbf6r1mjDqzdgDzWtYbRXMXxDlRy34pDF8BRtnzuQb3aUVV9K9FsxHCAOcHOLWQ6EC0XuWieHzZ/b598Gr32M2SeQ8dqpu+hHncN57vvWFClvFjl+tSD+rYAasYtCY7QjT7Tn/uqgFYedlz/bHvFKQTwj87eL6bWyHaU9tXbOjUPdOIy2XqZ4Gu1fWiyrhWI4kyo5b0ZZhIUih0unS7lH3nDf5MZ0bDfPa15p++HOX6PNiuEbquS4FYcthqdo/6uDG56irPZSot+K4QBxgMvCR+3AN4zZI5J5FrlrnRw2v1zib2MPh+wqYMfrT1UQj/bmKM9aP2pxyJHvRxN5frUgnrFpUTy2m0XwNQprh3/GQvRhjYJ4xiZF8dhmHiPWKIJnHO4XNNHeKxXDc1+vsZ8zFMOZVMl5M8oivCDy+OpI0I+eW8R28vP66jHpkNNTRrsVwzdUyXErDl0MT9GHNa47vkVZ5aVEvxXDAVIc5OaetO1+jt89irx1F8NT/L31RZ8n9l0n9fH6qeLWkR70N/cL3Fz3HxT5XuvENN+nua63j66ObWQhLeclXauYdpqHDUdf8pixVl5yPTmlxVtH6MX6s825nTUK+RmHnEoq2nyp4mn0Ya2bN4rhTKrkvBllEV4UuVzjGQF5jMjzx7d8D8V6s42vTIlyj0N+76Rot2L4hio5bsUZiuF5/r7G500xfDqcVwDnlQe5wUGvFYf/8txC5m2Qx3tMFcPHLoC7i26xzNSJwyEKedFON292KnLec3I1J+5F1BwZtsrFYawnC2dZAF/6QKtWnKYQfhd9Wu1i4yHu+zSPby/t01w+It8bub61Cvf32OV89nNEuy9XPI1+rFEsUwxnUiXnY5Hnf2eIzaf+ijasNhI0Io/veR6wuDAey96/f7Jdl74Bexdtz/dKrV+1yL4O32dHj03PA2P7tTzX4hTX89GPV6dR+hZldZcS/VYMB0hxkBubkmMYh50LdyuRszxBquVy8sslXtNadtGJTCx36IJ4tm/Q3laY1mcjkfvcR2tdGA4j37t54ZkncXkRmkWif1zMxr/l+zz/lpEXvPn6/Cy9o125ztPeeIm+ZS7XLEIMI/dpFiZyH+V7577fanHfl/n6tYvfj3GYX8rURPszV7V+1eI0FznZl0HfekMxnEmVnF8hdjGKN9rxju+i/C7J84Op76A858jXZBvGzqOXRq7zsIXwFO1vXbNcJTY9/lba04rTDG6LvuRns9bH2VFWdSnR757zJecVwLnFgW7uCeYhH7i4pczZIIf3mFMMHyv+LhrREstlcWtsVOxuf7oYbZtbAPPFvaHI/5pTbOw5so+XuEEY/cxCdC0HZ4pT3NiIPvRcHJ7qWBn9GftumwrFcCZVcn6F2M15YbTl1Ztee4zDF8JT9EExfEOV9rTiNMXwFP156fy0rOZSot+K4QB3caDrudh667yvZxP5an3hzPpyide1ioovjV6M5VtF+iwI7a7AF23yHj2Q2AfvHlG8dWTR7fAXrz2iv3mT4x0j4vYQeRF/iuNG9OPKxfCpXz+NhWI4kyo5v0LsapBEtGfurwSPEKc5l4h+KIZvqNKeVpyqGJ6iT4uvN8oqLiX6rRgO8CgOdnMvII0O7xD5erUY3jrpf3kqkFjHWEF8Vyfn0Z65J9nenzsS+yN/WnymUeL52fhaundJ0f8zjcw73f6M/ly6eBp9WvpATcVwJlVyfoXY3S8Go01n+AXaqT6v0R/F8A1V2tOK0xXDU/Rr0Y3wsvilRL8VwwEexcGuZ6SFkbczRa5aXziz5ueO1+VIt9aF/cs/6Y91tPb7f8pLNhdt6SkGmNd+Z2Kf5Hv4DAXU04weflXmoeSjlqejRN4MPN3+jD5dvnga/erJwT0Uw5lUyfkVYpfT50W78twiH6Bca/OeI4v4u52ScKnok2L4hirtacVZi+Fj18vNKItfSvRbMRxgKA54c0dZ/FUWYULkqvWFM/tEOF7bWscqo6BjPbWC+G4ephltmfu+POUJ3lnE/skC6hGnTjnlhesaMi8RR5s6JS/YT7s/s28PfZ2K017kRN965xFVDGdSJedXiF0fL7N9EUcZJZ7n86ecYi36pRi+oUp7WnHaa6XoW/5ipNbnZpRFLyX6rRgOMBQHvJ7R4YpDM0Se1iiG593u2jr+V17ysljX40/L91QI9548mdhPRymK58X1bj4LexZ5yulw9n4hfOoi+F328aHPU3Hqi5zoX89xRjGcSZWcXyEOcdyMdub54l6L4qf8JdKj6J9i+IYq7WnFqQcORf96rhsVw6fDeQVwHXHQMwp3RZGnl4vhKV7fuqhfrVgX68qC+MtTr6wl2pI3AbwfTyr2WRbF8/OxZH7fd0Y+0Go3n4MjibzlMSSPVXvZp9mO0xchHkVfFU+L6F9+h8z95YJiOJMqOb9CHOomYrR3L0XxS33/RD8VwzdUaU8rTn+9FH2cPX1SWeRSot+K4QA1cdDruaNq1OSEyNFaxfAsHNbWc9opa6JvPV/Wpx/xeWax/3Jk8ZZF1CyY5bQK5gRfQeQxi5D5XZI3Fmr5fmfcCxCXvKER/VY8fRB9nDuPqGI4kyo5v0Ic8vwq2x2xxXlFnk/k998pp0Npif4qhm+o0p5WXGLwUPZz0O9qlJdfSvRbMRygJQ58c0dU5AnmpU72ekV+sshXy133xUUskyf1tXWdbh9En1rF/1oYFX4isT/zAjZHdbxzLuo8dmWhVgH8zSK/WYzM4+A792le9OT6L39TLHJw/8XFnLhEvqKf+YuFWv8fY5c396Nd9ueOVHJ+hTj8d2T04Z3fQffziSyAX/Z8ovS/9v65Smx6/K20pxWXGMgW/cxzz1r/n6K8/FKi33mdVc1HJZxXANcSB76e0eF/lMWoiPy0RnV1f7nEMq0C8dfyktOIPvWMMPFFfWK5fyOyaJ0Xsvm+6LmYzYvUXCYvVPOkLi+IFb83Fvsg9+n9wjn3T8bUTdjc74/7Mpf/uawSAGaJ7477ecXjd9DUCPL763JgivMJAIAzihO8noKTYmRD5maQq29R/twtls0T8eH6/lP+fArRn56bMX+WxbioeA/kTaL8nH2L8s8AAAAAME8pLNWKj7U4VTF2TZGbtYvhrf1yitEp0Y+587tm5OuMygEAAAAAXnPre/iZByxURF5WLYanWL42OvwU+Y9+eM8BAAAAAJ91+z79wNxRuhmmKBiInFTn+S5/XiSWrxXY/1v+fFjRh57pUXJ+YQ9vBQAAAADWcfv+gJlaMbIWCpQVgxx9i/KnxWIdtTndD/swuWi7Gy8AAAAAwLZufQ/T/KssRlHJ0ctzrMc6aqOo/yh/Ppxou/cYAAAAALCt2y+//zwoRk7F17IooZKfv8ufXhLryZH4j+s95FQp0e4/Bv0Yixw97tcHAAAAAMB73H75/d8PBck5cdgpO9ZWyc1axfDh6PA/y58Oo9KHqfhSFgUAAAAAeI9b31QWRvAWkYfhCO5ViuEp1vVXRM7rfrhcR5vzFwc984SbHgUAAAAAeL9bf/Eyi+eXL4hHDv5+yEnGasXwo4oc/Cui573k4awAAAAAwOfc+qe1ONzUHWuLHAyL4f8uf7qk6H8Wwnt+ZZDxa1kcAAAAAOAzbr/8/uegUDkVly6IR/8Vwx9E/3Nql8d8TMWl8wUAAAAAbOS2bGTvb2Xxy4m+58NHsyB+jyvnovdGyuWnlAEAAAAANnTrnz8847JFYBYVws0TDgAAAABs7/bL718eCpdzQ0H8gmK/9xbC80bLz2VxAAAAAIBt3b5PAVIrZo6FgviFxP7uLYRneI8AAAAAAPtyU+ykIfbzkvfG17I4AAAAAMC+3PofqJmhIH5isX+XFML/LIsDAAAAAOzP7Zff/xWxpCD+R1kFJxL7VSEcAAAAADin2/KCuCLoScS+XPoeyGX+VVYDAAAAALBvt19+/ynif6XA2RN/RyiGHljsv9z3CuEAAAAAwDXcfvn954glBfEsiv5cVsOBxH77NWLpPlcIBwAAAACO6ba8IJ7LfCmr4QBif3192H89oRAOAAAAABzf7XtBfMm0GRkerLlzsY9yfvC/HvZZTyiEAwAAAADnkQXPUvisFUSnIpf7qayKHYn9ktOi/Lfsp95QCAcAAAAAzicLn6UAWiuMTkVOm/K1rIodiP3x74f90xt/ltUAAAAAAJzP7XtB/M+Homhv/B1hlPiGIv+vTHuToRAOAAAAAFzD7Zff/xgUSHvCKPENRM7zRsYro8EzfiurAwAAAAC4hiyMDgqlvZGjxH8uq+ONIs+vzA2ekTcwfi2rAwAAAAC4ltv3KTeyUForoM6NnHbFgxjfIPL6U8RfJc9LwwNQAQAAAABu36ffyFHetULq3MiCek7hoSi+gsxjxCtT2dzDjQoAAAAAgEe31+ejzsiiuHmpF4rc3ecFf3W0vv0AAAAAANBye31u6nvkOr5GGJU8Q+YpYo0ieEZOi2IudwAAAACAMbfvhdlX56m+h+lTRkReck7wnMpkjSJ4xr/LqgEAAAAAmOP2y+9fItYq0mZk0ffXsvpLizxkbte64ZBhNDgAAAAAwFK376PE13iQ42Pcp1D5qWzmErK/ETlKfo1paB7DaHAAAAAAgDXcvs8lnqOPa8XYVyJHR/8WccppVKJfWQDPwv87cvd3xKVuKAAAAAAAfMTte2F3zalTHiML44cfMR7t/7n04x0F8IwcWf6lbA4AAAAAgHe4fZ86Jaf7qBVq14os+OYc4zlqfNfF8WxfaeeaD8KsxbeHkZbNAgAAAADwCbfvReAsANcKt2tHFsdz5HgW4XPKlk2mVYntZp/z4ZfZjpym5J3F73t8K4JHnHIqGQAAAACAQ7h9tij+GFkkzoJ0bjuLxTk6Owvli4vludzDOnKqk1xvFuFzO7U2vDMUwQEAAAAA9ub2/4rinxgt3Rs5f3cWtIeRI85rr98yFMEBAAAAAPYui7ilmLvHQvOeI/OVo9sVwQEAAAAAjqQUd3MEdq34K75Hjqb/taQMAAAAAICjun2fQsVo8f8XOW1LzkluFDgAAAAAwBndfvn954g/Iq5WGM8CePb7p5IKAAAAAACu4Pa9MJ4jxrNQXCsgHz1yipgcAa4ADgAAAADAjwdv5hzjOYf2UUeN30d/f4kwBQoAAAAAAOOymFyKyjlyPEdY/y+iVoDeKrJg/1dEtu/XCMVvAAAAAABelwXnUnjOqUfuRfJ3T7GS28jI7eV2Fb4BAAAAANjO7fsc5FmszsgpV7KAPTdyFPp9WXN8AwAAAAAAAAAAAAAAAAAAAAAAAAAAAAAAAAAAAAAAAAAAAAAAAAAAAAAAAAAAAAAAAAAAAAAAAAAAAAAAAAAAAAAAAAAAAAAAAAAAAAAAAAAAAAAAAAAAAAAAAAAAAAAAAAAAAAAAAAAAAAAAAAAAAAAAAAAAAAAAAAAAAAAAAAAAAAAAAAAAAAAAAAAAAAAAAAAAAAAAAAAAAAAAAAAAAAAAAAAAAAAAAAAAAAAAAAAAAAAAAAAAAAAAAAAAAAAAAAAAAAAAAAAAAAAAAAAAAAAAAAAAAAAAAAAAAAAAAAAAAAAAAAAAAAAAAAAAAAAAAAAAAAAAAAAAAAAAAAAAAAAAAAAAAAAAAAAAAAAAAAAAAAAAAAAAAAAAAAAAAAAAAAAAAAAAAAAAAAAAAAAAAAAAAAAAAAAAAAAAAAAAAAAAAAAAAAAAAAAAAAAAAAAAAAAAAAAAAAAAAAAAAAAAAAAAAAAAAAAAAAAAAAAAAAAAAAAAAAAAAAAAAAAAAAAAAAAAAAAAAAAAAAAAAAAAAAAAAAAAAAAAAAAAAAAAAAAAAAAAAAAAAAAAAAAAAAAAAAAAAAAAAAAAAAAAAAAAAAAAAAAAAAAAAAAAAAAAAAAAAAAAAAAAAAAAAAAAAAAAAAAAAAAAAAAAAAAAAAAAAAAAAAAAAAAAAAAAAAAAAAAAAAAAAAAAAAAAAAAAAAAAAAAAAAAAAAAAAAAAAAAAAAAAAAAAAAAAAAAAAAAAAAAAAAAAAAAAAAAAAAAAAAAAAAAAAAAAAAAAAAAAAAAAAAAAAAAAAAAAAAAAAAAAAAAAAAAAAAAAAAAAAAAAAAAAAAAAAAAAAAAAAAAAAAAAAAAAAAAAAAAAAAAAAAAAAAAAAAAAAAAAAAAAAAAAAAAAAAAAAAAAAAAAAAAAAAAAAAAAAAAAAAAAAAAAAAAAAAAAAAAAAAAAAAAAAAAAAAAAAAAAAAAAAAAAAAAAAAAAAAAAAAAAAAAAAAAAAAAAAAAAAAAAAAAAAAAAAAAAAAAAAAAAAAAAAAAAAAAAAAAczv/93/8PFdu4UC8Qt98AAAAASUVORK5CYII=;strokeColor=none;points=[[0,0.48,0],[1,0.48,0],[0.51,1,0]];labelBackgroundColor=none;rounded=0;html=1;whiteSpace=wrap;" vertex="1" parent="1">
            <mxGeometry x="400" y="-46.00000000000003" width="189.4" height="60" as="geometry" />
          </mxCell>
        </UserObject>
      </root>
    </mxGraphModel>
  </diagram>
</mxfile>
